<?xml version="1.0" standalone="no"?>
<!DOCTYPE svg PUBLIC "-//W3C//DTD SVG 20010904//EN"
 "http://www.w3.org/TR/2001/REC-SVG-20010904/DTD/svg10.dtd">
<svg version="1.0" xmlns="http://www.w3.org/2000/svg"
 width="280.000000pt" height="283.000000pt" viewBox="0 0 280.000000 283.000000"
 preserveAspectRatio="xMidYMid meet">

<g transform="translate(0.000000,283.000000) scale(0.100000,-0.100000)"
fill="#000000" stroke="none">
<path d="M619 2516 c-62 -17 -130 -58 -170 -103 l-33 -38 -82 3 c-122 6 -199
-33 -247 -123 l-22 -40 -3 -953 c-2 -620 1 -966 8 -991 16 -59 68 -129 119
-159 l46 -27 995 0 995 0 45 27 c25 14 59 41 77 60 36 38 83 122 83 149 0 17
9 19 86 19 47 0 94 4 104 10 27 14 35 58 14 81 -14 16 -32 19 -106 19 l-88 0
0 36 c0 28 5 37 21 41 11 3 56 23 100 44 60 29 80 44 85 64 9 35 -14 65 -70
94 l-47 23 5 147 c2 80 5 154 6 165 2 27 -28 54 -64 58 l-31 3 -5 505 -5 505
-27 52 c-34 63 -69 99 -124 124 -23 11 -52 35 -67 56 -44 66 -85 103 -144 131
l-58 27 -675 2 c-514 2 -686 -1 -721 -11z m1411 -120 c19 -10 46 -28 58 -40
55 -49 52 -7 53 -957 l0 -881 -24 -37 c-49 -74 -14 -71 -789 -71 -676 0 -694
-1 -738 -21 -25 -11 -57 -32 -73 -46 l-27 -27 0 972 c0 801 2 978 14 1005 17
43 88 103 134 115 23 6 288 10 697 9 623 -2 662 -3 695 -21z m-1710 -1161 l0
-1035 -22 0 c-31 0 -83 33 -105 67 -17 26 -18 78 -18 974 0 946 0 948 21 976
25 34 59 53 97 53 l27 0 0 -1035z m1984 909 c20 -38 21 -53 21 -529 l0 -490
-30 0 -30 0 -3 533 c-2 566 -2 571 42 486z m136 -1240 l0 -96 -52 31 -53 30
-3 65 -3 66 56 0 55 0 0 -96z m-28 -217 l58 -33 -77 -37 -76 -38 6 -99 c8
-129 2 -161 -41 -211 -72 -83 -14 -79 -919 -79 -576 0 -803 3 -803 11 0 6 8
24 17 40 35 60 25 59 791 59 792 0 740 -5 821 86 61 69 71 98 78 238 l6 124
41 -14 c23 -8 67 -29 98 -47z"/>
<path d="M1195 2249 c-228 -24 -418 -138 -500 -301 -43 -87 -58 -163 -53 -260
9 -148 113 -304 248 -373 70 -35 140 -51 415 -90 249 -36 308 -51 329 -88 9
-15 6 -22 -13 -38 -18 -15 -39 -19 -100 -19 -120 0 -291 17 -421 41 -104 19
-126 21 -173 10 -145 -32 -220 -194 -150 -322 40 -75 121 -127 258 -168 141
-42 432 -55 568 -26 183 38 331 151 420 320 30 56 32 67 32 160 0 115 -12 151
-89 251 -86 114 -224 177 -476 214 -399 60 -413 64 -434 124 -8 20 -6 32 10
54 33 44 100 61 244 61 131 1 220 -13 324 -50 117 -42 206 -24 269 53 20 25
30 50 34 89 8 83 -10 134 -71 193 -97 95 -228 146 -425 166 -114 11 -130 11
-246 -1z m335 -134 c114 -23 147 -35 197 -69 81 -55 113 -124 79 -168 -26 -34
-56 -37 -141 -11 -178 53 -387 68 -530 38 -114 -24 -187 -90 -201 -180 -9 -61
11 -111 66 -166 57 -57 77 -62 434 -114 190 -28 249 -40 292 -61 67 -33 139
-95 176 -153 25 -40 28 -54 28 -130 0 -58 -5 -96 -16 -116 -33 -64 -99 -136
-162 -179 -98 -66 -162 -80 -362 -80 -341 0 -520 68 -520 196 0 65 78 110 157
89 112 -30 226 -41 420 -41 224 -1 243 3 284 61 59 83 24 196 -73 243 -63 30
-135 45 -408 85 -113 17 -223 36 -245 42 -101 29 -167 88 -211 189 -53 121
-33 266 51 376 59 78 206 146 355 164 80 10 243 3 330 -15z"/>
<path d="M2504 225 c-19 -19 -23 -31 -18 -48 11 -36 25 -47 60 -47 56 0 83 61
44 100 -27 27 -56 25 -86 -5z"/>
</g>
</svg>
